<svg id="Capa_1" data-name="Capa 1" xmlns="http://www.w3.org/2000/svg" viewBox="0 0 36.86 36.86"><defs><style>.cls-1{fill:#ccb16b;}</style></defs><path class="cls-1" d="M18.43,35A16.57,16.57,0,1,1,35,18.43,16.58,16.58,0,0,1,18.43,35Zm0-32.42A15.85,15.85,0,1,0,34.28,18.43,15.87,15.87,0,0,0,18.43,2.58Z"/><path class="cls-1" d="M28.77,15.67v-.09l0-.06L26,11.7l0,0s0,0-.06,0h0l0,0-.08,0H11l-.09,0s0,0-.06,0l0,.05L8.09,15.56l0,0v.17a.06.06,0,0,0,0,0,.14.14,0,0,0,0,.06l.17-.09-.15.13,0,0,10,11.27,0,0a.14.14,0,0,0,.1.06l.07,0h.16l.08,0,.09-.07,10-11.31,0-.05s0-.07,0-.09v-.11Zm-3-3.17,2,2.88H23.66ZM13.89,15.22l-2.14-3h5.71Zm-.29.85,3.74,9.22L9.15,16.07Zm5.76-3.82h5.7l-2.14,3Zm3.12,3.82-4.07,10-4.07-10Zm5.18,0-8.18,9.22,3.74-9.22Zm-12.88-.69,3.63-3,3.63,3Zm-1.62,0H9.05l2-2.88Z"/></svg>