<svg xmlns="http://www.w3.org/2000/svg" viewBox="0 0 858.99 278.29"><defs><style>.cls-1{fill:#fff;}</style></defs><g id="Capa_2" data-name="Capa 2"><g id="Capa_1-2" data-name="Capa 1"><path class="cls-1" d="M422.14,99.92l-2.39,32.29H327.67v-4c11.36,0,14.06-7.77,14.06-17.19V49c0-9.42-2.7-17.19-14.06-17.19V27.57H381v4.19c-11.35,0-14,7.77-14,17.19v77.43h25.57c12.85,0,20.18-11.36,24.81-26.46Z"/><path class="cls-1" d="M502.25,127.73c-2.69,3.13-7.33,5.83-15.7,5.83-8.07,0-17.49-2.7-19.73-9.87-5.23,8.07-13.6,9.87-21.08,9.87-12.4,0-24.06-4-26.16-15S423,97.53,440.66,93.94c14-2.84,22.72.15,21.08-10.16-1.35-7.62-4-15.55-11.51-15.55-9.42-.74-13.75,8.52-7.92,13.31-3.59,6.43-9.72,6.87-13.91,4.93-3.88-2-5.52-6.13-3.43-11.36C428.55,65.39,441.56,63,450.08,63c23.91,0,33.78,7.92,36.47,26.76,2.09,15.1,2.84,21.07,2.84,21.07.9,5.23,1.79,11.22,3.29,13.16s4.93,2.09,8.37.45C501.65,126.08,501.8,126.23,502.25,127.73ZM465,109c-.44-5.38-1-10.91-1.64-14.65-1.2,2.39-2.84,3.14-10.46,5.23-6.43,1.95-10.91,7.48-9.87,15.1,1.05,6.88,7.78,11.06,13.31,9.57C463.53,122.64,465.47,116.22,465,109Z"/><path class="cls-1" d="M572.48,117.11c-3.88,9.27-9.71,16.45-20.77,16.45-12,0-21.68-7.93-21.68-23.92V70.33H518.37V64.49c14.81-.74,28.11-9.11,31.25-25.26h4.63V64.49H570.1v5.84H554.25v40.5c0,7,2.54,9,6.13,9.72,3.88.6,7-1.2,9.27-4.93Z"/><path class="cls-1" d="M639.74,83.18A14.3,14.3,0,0,1,622.1,91.4c1.5-5.23,1.5-11.66-4.33-13.6-6.73-2.09-12.11,1.64-12.71,8.37V111c0,9.42.9,17.19,12.26,17.19v4H568v-4c11.52,0,12.86-7.77,12.86-17.19V95.89c0-9.42-1.34-17.19-12.86-17.19v-4c8.82,0,23.92-3.74,33-11.66h4V76.46c4.79-9.13,12-15.26,23-13.46C638.84,64.79,643,74.66,639.74,83.18Z"/><path class="cls-1" d="M688.76,128.17v4H639.44v-4c11.35,0,12.85-7.77,12.85-17.19V95.89c0-9.42-1.5-17.19-12.85-17.19v-4c8.66,0,23.91-3.59,32.88-11.66h4v48C676.36,120.4,677.25,128.17,688.76,128.17Zm-41.85-86.4c0-7.77,6.72-14.2,14.94-14.2S676.8,34,676.8,41.77,670.08,56,661.85,56,646.91,49.55,646.91,41.77Z"/><path class="cls-1" d="M770.07,98.28c0,21.07-14.8,38.56-37.52,35.28a28,28,0,0,1-19-11.21l-18.69,9.86h-3.73V60.61c0-9.42-1.35-17.19-12.86-17.19V39.23c8.82,0,23.92-3.58,33-11.66h4v43.2A27.58,27.58,0,0,1,731.21,63C753.93,59.86,770.07,77.2,770.07,98.28Zm-24.66-2c-3.14-17.78-10.17-28.4-19.29-26.9s-12.25,14-9.11,32,10.31,28.41,19.43,26.91S748.55,114.27,745.41,96.33Z"/><path class="cls-1" d="M859,122.49c-3.58,7.63-8.82,11.07-17.19,11.07-10,0-16.74-3.59-18.68-12-4.34,6.42-11.51,12-23.62,12-15,0-25.71-7.78-25.86-26.46V95.89c0-9.42.3-17.19-11.06-17.19v-4c8.67,0,22.12-3.74,31.09-11.66h4v41.7c0,8.82,2.54,16.75,12.7,16.75,9.12,0,12.11-7.93,12.11-17.79V95.89c0-9.42.3-17.19-11.06-17.19v-4c8.67,0,22.12-3.74,31.24-11.66h4v47.83c0,7.18.16,12.26,3.74,13.31,2.54.75,4.48-.6,6-3.14Z"/><path class="cls-1" d="M483.47,187.75q-.39.38-14.1,7.46-23.25,13.46-36.63,25.1a5.66,5.66,0,0,1-1.15,1.51c-1.27,1-1.79,1.89-1.54,2.64q5.9,19.78,4.7,27.36a13.83,13.83,0,0,1-1.17,3.78q-2.73,9.47-11.48,12a12.25,12.25,0,0,1-6.07-.05c-4.29-.8-7.31-3.6-9-8.42q-1.85-7.23,1.65-15.54,2-6.81,10.77-17.36-1.86-6.84-3.68-14.44a3,3,0,0,1-.36-1.9,8.38,8.38,0,0,0-1.49-2.67c-.26.25-1.53,1.38-3.83,3.38-.25.26-.51.51-.76.76q-13.76,12-26.65,12.28-9.88.69-14.72-8.84a27.43,27.43,0,0,0-1.5-2.67q-4-16.35,5.58-31.82,9.6-13.93,17.21-16.92,8.36-1.81,11.35,3.89,2.22,6.47-3.92,14.76-8.43,9.79-15.29,13.53a10.93,10.93,0,0,1-2.28.73,8.23,8.23,0,0,0-3,1.5q-.84,8.72,1.4,12.53c1.5,2.28,4.15,3.2,7.94,2.72q12.54-2.18,24-13.45l1.53-1.51c1.53-1.75,2.3-3.14,2.31-4.15q-.62-17.08,7.07-28.77,6.9-9,13.74-9.75a7.14,7.14,0,0,1,3.78.79c2.77,1.54,3.76,4.72,3,9.51q-2.76,12.5-17.33,30.58,1.8,11.4,4.38,21.28a154.1,154.1,0,0,1,15.27-12.39q23.26-15,36.21-20.93,6.09-2.61,6.83.43A4.46,4.46,0,0,1,483.47,187.75ZM396,171.83v-1.14q-10.68,6-18.39,21.85a30.68,30.68,0,0,0,4.57-3Q394.4,179.42,396,171.83Zm26,62-.74-1.52a52.3,52.3,0,0,0-8.87,17q-2.36,8.34,2.94,11,4.94,0,8-6.76,2.33-5.3-1.36-18.6Zm9.65-64c0-1,0-1.64,0-1.9a6,6,0,0,0-1.53,1.13q-3.86,7.56-3.87,9.07Q427.8,176.66,431.65,169.86Z"/><path class="cls-1" d="M495.44,162.05a9.31,9.31,0,0,1,5.67,2.71q3.38,4.58.65,13.28-6.19,14-16.49,20.72a8.43,8.43,0,0,0,.72,4.56q1.1,4.19,5.28,3.46,4.19-1.49,10.3-7.12,9.18-9,20-29,1.55-3.39,5-1.46a4.36,4.36,0,0,1,1.5,1.52q.72,3.81.22,18.59,0,1.53,1.92-1.5l1.14-1.13q10.35-12.42,12.26-14.31,5-4.89,10.64-1.43a13.8,13.8,0,0,1,1.5,1.15q1.88,2.69,4.8,15.22a13.58,13.58,0,0,0,1.11,4.18q1.45,6.84,7.52,7.65l2.27,0q8.36-1.81,18.7-13.12c1.78-1.75,2.67-2,2.66-.73a2.82,2.82,0,0,0-.39,1.13q-1.94,5.3-11.11,13.56a37.63,37.63,0,0,0-3.06,2.63q-9.15,6.39-17.84,1a12.31,12.31,0,0,1-1.88-1.54q-4.51-4.2-7.43-18.64a55.36,55.36,0,0,0-1.46-6.09,53.74,53.74,0,0,0-5.36,5.27q-3.45,4.52-15.73,21.49c-1.8,2.77-4.2,3.37-7.23,1.83A9.82,9.82,0,0,1,519,203.6q-.74-2.65.52-16.69c0-1,0-1.89,0-2.65q-11.91,18.48-18.8,25.26-8,7.13-13.71,6.7c-5.07.47-8.7-2.47-10.93-8.81a2.69,2.69,0,0,1-.36-1.14q-3.68-16.34,6-33.72Q488.6,162.76,495.44,162.05Zm1.83,8.36q0-1.12-2.28.36a50.41,50.41,0,0,0-8.89,18.9c0,2.27.22,3.41.73,3.42a32.06,32.06,0,0,0,6.89-7.53Q498.73,176.13,497.27,170.41Z"/><path class="cls-1" d="M614.57,159.65h1.14q7.2.45,9,7.67a17.07,17.07,0,0,1,.35,3q-.84,7.95-4.28,12.1a2.41,2.41,0,0,1-3.79.73,3.68,3.68,0,0,1-.75-1.91q3.87-9.08,3.88-10.21a10.14,10.14,0,0,0-.35-3q-1.09-5.31-7.94-3.85l-.76.37Q599.71,168.26,595,183q-3.54,15.15-.56,21.62,2.6,7.6,12.09,6.55a2.26,2.26,0,0,0,1.52-.37q10.63-2.56,26.33-18.74l1.15-1.13a14.59,14.59,0,0,0,3.06-3.39,33.76,33.76,0,0,1,6.49-4.88c2.29-1.24,3.67-.85,4.16,1.17V185c-.27.76-1.53,1.13-3.81,1.11a4.27,4.27,0,0,0-1.53.75,88,88,0,0,0-9.17,8.65Q627.1,203,623.28,206,608,218.39,596.63,217.53q-8.73-.45-12.06-10c0-.25,0-.51,0-.76q-3.65-16.73,5.95-31.43Q601.68,160.29,614.57,159.65Z"/><path class="cls-1" d="M709.73,164.62c2.53-.22,3.91.92,4.15,3.45,0,.51,0,.89,0,1.14,0,1,.37,1.27,1.13.77a4.16,4.16,0,0,1,.77-1.13q.39-2.65,3.05-1.87c.5.51.87.89,1.13,1.14q3.63,18.24,4,20.14,2.58,8.37,9.78,9.57a3.53,3.53,0,0,0,2.27,0q4.56-.72,14.88-9a7.88,7.88,0,0,1,1.91-1.5q5.33-3.37,6.84-3a6,6,0,0,0,1.52.39q1.88,1.92-.79,3a3,3,0,0,1-1.14.37q-1.53,1.51-5,4.51a87.83,87.83,0,0,1-9.93,8.26q-10.7,7.89-19.37,2.12-8.3-5.77-10.44-21.33a87.14,87.14,0,0,1-6.94,13.59,99.23,99.23,0,0,1-11.11,12q-5,4.89-10.63,1.42a4.13,4.13,0,0,1-1.5-1.53c-1.51-1.77-2.11-5.71-1.8-11.77q-6.88,7.14-8,8.66l-4.59,4.51q-8.42,8.27-13,10.89-6.87,4.11-12.13-1.62-3.75-5-3.66-16.72A167.21,167.21,0,0,1,644,180.38q.79-5.31,5.36-5.65a1.59,1.59,0,0,1,1.13.39q4.54,1.19,3.35,8-2.82,19.32-2.48,23.5a43.89,43.89,0,0,0,1.84,6.84,27,27,0,0,0,7.24-3.36q5.72-4.87,29.45-29.33l8.8-8.66,7.64-6.37A27.46,27.46,0,0,1,709.73,164.62Zm-56.42-11.47c3,0,4.79,1.43,5.28,4.21a14,14,0,0,1-.41,3.41q-3.84,4.53-8.75,3.34a8.05,8.05,0,0,1-3.39-3.06q-1.49-4.94,4.23-7.17A6.79,6.79,0,0,1,653.31,153.15Zm60.52,20.61a7,7,0,0,1,.2-1.32c.13-.63.07-.95-.18-.95a4.67,4.67,0,0,1-.77,1.13q-1.16,1.13-10.33,10.91-10,12.06-10.4,18.12a7.24,7.24,0,0,0-.4,2.27,28.25,28.25,0,0,0,11.08-9Q708.78,188.13,713.83,173.76Z"/><path class="cls-1" d="M768.71,120c1.26,0,2.13.78,2.63,2.3q1.1,4.93-.93,20.85c-2.47,22.74-1.94,12.07-3.13,33.3q-1.44,35.65.29,55,2.16,15.19,4.39,19.77a22.78,22.78,0,0,0,6.51-7.16q3.46-6,9.26-19.26,8.89-20,15.42-28.7,7.27-7.9,9.94-9a4.05,4.05,0,0,1,2.28-.74c2.53-.74,4.18-.09,4.92,1.94,0,.51,0,.89,0,1.13,0,1.27-1.29,2.15-3.82,2.63a6.23,6.23,0,0,1-1.52.37q-6.11,4.5-11.87,13.93Q799.61,212.05,788,240q-1.56,3.41-3.09,6.43-5.79,11.7-10.36,13.94-6.1,3.36-11.36-3.13a4.3,4.3,0,0,0-.74-1.52Q758.33,247,757,229.51c-1.08-21.75-2.44-42.11,2-72.44C762.21,135.56,765.67,120.77,768.71,120Z"/><path class="cls-1" d="M139.14,278.29C62.42,278.29,0,215.87,0,139.14S62.42,0,139.14,0,278.29,62.42,278.29,139.14,215.87,278.29,139.14,278.29Zm0-272.22C65.76,6.07,6.07,65.76,6.07,139.14S65.76,272.22,139.14,272.22A133.22,133.22,0,0,0,272.22,139.14C272.22,65.76,212.53,6.07,139.14,6.07Z"/><path class="cls-1" d="M226,116a3,3,0,0,0-.11-.43.56.56,0,0,0,0-.12,1,1,0,0,0-.06-.16,6.48,6.48,0,0,0-.33-.57L202.75,82.61l-.26-.29c-.07-.07-.39-.32-.48-.38l-.11-.06a.82.82,0,0,0-.2-.12l-.68-.22c-.1,0-.56-.06-.65-.06H77.44a5.93,5.93,0,0,0-.72.1,4.21,4.21,0,0,0-.8.36,4.06,4.06,0,0,0-.46.36c-.06.07-.34.39-.39.46L52.3,115.05c0,.08-.17.37-.21.46L52,116c0,.08,0,.4,0,.48s0,.33,0,.41.06.3.08.38.14.37.18.44l1.43-.69-1.24,1c0,.06.21.28.25.32l84,94.57a1.75,1.75,0,0,0,.34.38,1.19,1.19,0,0,0,.78.51,4.36,4.36,0,0,0,.58.19,3.17,3.17,0,0,0,.61.07,3.13,3.13,0,0,0,.61-.08l.19-.06a1.57,1.57,0,0,0,.65-.28l.76-.61,84.31-95a3.91,3.91,0,0,0,.26-.44,4.44,4.44,0,0,0,.21-.71,3.91,3.91,0,0,0,.05-.48S226,116,226,116ZM200.45,89.35l17.1,24.21h-34.5Zm-99.39,22.89-18-25H131Zm-2.48,7.1L130,196.73,61.25,119.34ZM147,87.26h47.89l-18,25Zm26.19,32.08L139,203.52l-34.16-84.18Zm43.56,0L148,196.73l31.41-77.39Zm-108.2-5.78L139,88.14l30.48,25.42Zm-13.61,0H60.4L77.5,89.35Z"/></g></g></svg>